<?xml version="1.0" encoding="utf-8"?>
<!-- Generator: Adobe Illustrator 17.1.0, SVG Export Plug-In . SVG Version: 6.00 Build 0)  -->
<!DOCTYPE svg PUBLIC "-//W3C//DTD SVG 1.1//EN" "http://www.w3.org/Graphics/SVG/1.1/DTD/svg11.dtd">
<svg version="1.1" id="Layer_1" xmlns="http://www.w3.org/2000/svg" xmlns:xlink="http://www.w3.org/1999/xlink" x="0px" y="0px"
	 viewBox="0 0 400 320" enable-background="new 0 0 400 320" xml:space="preserve">
<polyline fill="none" stroke="#66C2A5" stroke-width="2" stroke-miterlimit="10" points="60,241.1 61.1,235.7 63.3,223.2 67.7,216 
	"/>
<path fill="#66C2A5" d="M63.2,241.1c0,4.2-6.3,4.2-6.3,0C56.8,236.9,63.2,236.9,63.2,241.1"/>
<path fill="none" stroke="#66C2A5" stroke-miterlimit="10" d="M63.2,241.1c0,4.2-6.3,4.2-6.3,0C56.8,236.9,63.2,236.9,63.2,241.1"/>
<path fill="#66C2A5" d="M64.3,235.7c0,4.2-6.3,4.2-6.3,0C57.9,231.5,64.3,231.5,64.3,235.7"/>
<path fill="none" stroke="#66C2A5" stroke-miterlimit="10" d="M64.3,235.7c0,4.2-6.3,4.2-6.3,0C57.9,231.5,64.3,231.5,64.3,235.7"/>
<path fill="#66C2A5" d="M66.5,223.2c0,4.2-6.3,4.2-6.3,0C60.1,219,66.5,219,66.5,223.2"/>
<path fill="none" stroke="#66C2A5" stroke-miterlimit="10" d="M66.5,223.2c0,4.2-6.3,4.2-6.3,0C60.1,219,66.5,219,66.5,223.2"/>
<path fill="#66C2A5" d="M70.8,216c0,4.2-6.3,4.2-6.3,0S70.8,211.7,70.8,216"/>
<path fill="none" stroke="#66C2A5" stroke-miterlimit="10" d="M70.8,216c0,4.2-6.3,4.2-6.3,0S70.8,211.7,70.8,216"/>
<polyline fill="none" stroke="#FC8D62" stroke-width="2" stroke-miterlimit="10" points="67.7,200.3 76.5,171.5 94,139.8 
	129.2,94.7 "/>
<path fill="#FC8D62" d="M70.8,200.3c0,4.2-6.3,4.2-6.3,0C64.5,196.1,70.8,196.1,70.8,200.3"/>
<path fill="none" stroke="#FC8D62" stroke-miterlimit="10" d="M70.8,200.3c0,4.2-6.3,4.2-6.3,0C64.5,196.1,70.8,196.1,70.8,200.3"/>
<path fill="#FC8D62" d="M79.6,171.5c0,4.2-6.3,4.2-6.3,0C73.3,167.2,79.6,167.2,79.6,171.5"/>
<path fill="none" stroke="#FC8D62" stroke-miterlimit="10" d="M79.6,171.5c0,4.2-6.3,4.2-6.3,0C73.3,167.2,79.6,167.2,79.6,171.5"/>
<path fill="#FC8D62" d="M97.2,139.8c0,4.2-6.3,4.2-6.3,0C90.9,135.6,97.2,135.6,97.2,139.8"/>
<path fill="none" stroke="#FC8D62" stroke-miterlimit="10" d="M97.2,139.8c0,4.2-6.3,4.2-6.3,0C90.9,135.6,97.2,135.6,97.2,139.8"/>
<path fill="#FC8D62" d="M132.3,94.7c0,4.2-6.3,4.2-6.3,0C126,90.5,132.3,90.5,132.3,94.7"/>
<path fill="none" stroke="#FC8D62" stroke-miterlimit="10" d="M132.3,94.7c0,4.2-6.3,4.2-6.3,0C126,90.5,132.3,90.5,132.3,94.7"/>
<polyline fill="none" stroke="#8DA0CB" stroke-width="2" stroke-miterlimit="10" points="94,174.4 129.2,148.2 199.4,125.1 
	340,103.6 "/>
<path fill="#8DA0CB" d="M97.2,174.4c0,4.2-6.3,4.2-6.3,0C90.9,170.2,97.2,170.2,97.2,174.4"/>
<path fill="none" stroke="#8DA0CB" stroke-miterlimit="10" d="M97.2,174.4c0,4.2-6.3,4.2-6.3,0C90.9,170.2,97.2,170.2,97.2,174.4"/>
<path fill="#8DA0CB" d="M132.3,148.2c0,4.2-6.3,4.2-6.3,0C126,144,132.3,144,132.3,148.2"/>
<path fill="none" stroke="#8DA0CB" stroke-miterlimit="10" d="M132.3,148.2c0,4.2-6.3,4.2-6.3,0C126,144,132.3,144,132.3,148.2"/>
<path fill="#8DA0CB" d="M202.6,125.1c0,4.2-6.3,4.2-6.3,0C196.3,120.9,202.6,120.9,202.6,125.1"/>
<path fill="none" stroke="#8DA0CB" stroke-miterlimit="10" d="M202.6,125.1c0,4.2-6.3,4.2-6.3,0
	C196.3,120.9,202.6,120.9,202.6,125.1"/>
<path fill="#8DA0CB" d="M343.2,103.6c0,4.2-6.3,4.2-6.3,0C336.8,99.4,343.2,99.4,343.2,103.6"/>
<path fill="none" stroke="#8DA0CB" stroke-miterlimit="10" d="M343.2,103.6c0,4.2-6.3,4.2-6.3,0C336.8,99.4,343.2,99.4,343.2,103.6"
	/>
<path fill="#66C2A5" d="M127.5,217.2c0,0.4,0.1,0.7,0.3,0.9c0.3,0.4,0.8,0.5,1.5,0.5c0.4,0,0.8-0.1,1.1-0.3c0.3-0.2,0.5-0.5,0.5-0.8
	c0-0.3-0.1-0.5-0.4-0.7c-0.2-0.1-0.5-0.2-1-0.3l-0.9-0.2c-0.6-0.1-1-0.3-1.3-0.5c-0.5-0.3-0.7-0.7-0.7-1.3c0-0.6,0.2-1.1,0.7-1.5
	c0.5-0.4,1.1-0.6,1.8-0.6c1,0,1.7,0.3,2.2,0.9c0.3,0.4,0.4,0.8,0.4,1.2h-1.1c0-0.3-0.1-0.5-0.3-0.7c-0.3-0.3-0.7-0.4-1.3-0.4
	c-0.4,0-0.8,0.1-1,0.2c-0.2,0.2-0.3,0.4-0.3,0.6c0,0.3,0.1,0.5,0.4,0.7c0.2,0.1,0.4,0.2,0.7,0.3l0.7,0.2c0.8,0.2,1.4,0.4,1.6,0.6
	c0.4,0.3,0.7,0.7,0.7,1.4c0,0.6-0.2,1.1-0.7,1.5c-0.5,0.4-1.1,0.7-2.1,0.7c-1,0-1.7-0.2-2.1-0.7c-0.4-0.5-0.6-1-0.7-1.7H127.5z
	 M120.4,210.1h1.1v5.3l2.9-2.8h1.4l-2.6,2.5l2.7,4.2h-1.4l-2.1-3.4l-0.9,0.9v2.5h-1.1V210.1z M118.5,213c0.5,0.4,0.8,1,0.9,1.9h-1.1
	c-0.1-0.4-0.2-0.8-0.5-1c-0.2-0.3-0.6-0.4-1.1-0.4c-0.7,0-1.2,0.4-1.5,1.1c-0.2,0.5-0.3,1-0.3,1.7s0.1,1.2,0.4,1.7
	c0.3,0.5,0.7,0.7,1.3,0.7c0.5,0,0.8-0.1,1.1-0.4c0.3-0.3,0.5-0.7,0.6-1.2h1.1c-0.1,0.9-0.4,1.5-0.9,1.9c-0.5,0.4-1.1,0.6-1.9,0.6
	c-0.9,0-1.6-0.3-2.1-1c-0.5-0.6-0.8-1.4-0.8-2.4c0-1.2,0.3-2.1,0.9-2.7c0.6-0.7,1.3-1,2.2-1C117.4,212.4,118,212.6,118.5,213z
	 M111.8,213.3c0.6,0.6,0.9,1.4,0.9,2.5c0,1.1-0.3,2-0.8,2.7c-0.5,0.7-1.3,1.1-2.4,1.1c-0.9,0-1.7-0.3-2.2-0.9
	c-0.5-0.6-0.8-1.5-0.8-2.5c0-1.1,0.3-2,0.9-2.7c0.6-0.7,1.3-1,2.3-1C110.5,212.4,111.2,212.7,111.8,213.3z M111.1,217.7
	c0.3-0.6,0.4-1.2,0.4-1.9c0-0.6-0.1-1.1-0.3-1.5c-0.3-0.6-0.9-0.9-1.6-0.9c-0.7,0-1.2,0.3-1.5,0.8c-0.3,0.5-0.5,1.2-0.5,1.9
	c0,0.7,0.2,1.3,0.5,1.8c0.3,0.5,0.8,0.7,1.5,0.7C110.4,218.6,110.9,218.3,111.1,217.7z M104.1,210.1h1.1v9.2h-1.1V210.1z
	 M101.2,217.8c0.3-0.5,0.5-1.1,0.5-1.9c0-0.7-0.1-1.3-0.5-1.8c-0.3-0.5-0.7-0.7-1.3-0.7c-0.5,0-1,0.2-1.3,0.6
	c-0.4,0.4-0.6,1-0.6,1.9c0,0.6,0.1,1.1,0.2,1.5c0.3,0.7,0.8,1.1,1.7,1.1C100.4,218.5,100.9,218.3,101.2,217.8z M96.9,210.1H98v3.3
	c0.2-0.3,0.5-0.6,0.9-0.7c0.3-0.2,0.7-0.2,1.1-0.2c0.8,0,1.5,0.3,2,0.9c0.5,0.6,0.8,1.4,0.8,2.5c0,1.1-0.3,1.9-0.8,2.6
	c-0.5,0.7-1.2,1-2.1,1c-0.5,0-0.9-0.1-1.3-0.4c-0.2-0.1-0.4-0.4-0.7-0.7v0.9h-1V210.1z M87,210.1h1.1v5.3l2.9-2.8h1.4l-2.6,2.5
	l2.7,4.2h-1.4l-2.1-3.4l-0.9,0.9v2.5H87V210.1z M80.1,218.7c-0.5-0.6-0.7-1.3-0.7-2.1h1.2c0.1,0.6,0.2,1,0.3,1.3
	c0.3,0.5,0.8,0.7,1.6,0.7c0.6,0,1.1-0.2,1.4-0.5c0.4-0.3,0.5-0.7,0.5-1.2c0-0.6-0.2-1-0.6-1.3c-0.4-0.2-0.9-0.4-1.6-0.4
	c-0.1,0-0.1,0-0.2,0c-0.1,0-0.2,0-0.2,0v-1c0.1,0,0.2,0,0.3,0c0.1,0,0.2,0,0.3,0c0.4,0,0.8-0.1,1-0.2c0.5-0.2,0.7-0.7,0.7-1.2
	c0-0.4-0.2-0.8-0.5-1s-0.7-0.4-1.1-0.4c-0.8,0-1.3,0.2-1.6,0.8c-0.2,0.3-0.2,0.7-0.3,1.2h-1.1c0-0.7,0.1-1.2,0.4-1.7
	c0.5-0.8,1.3-1.2,2.4-1.2c0.9,0,1.6,0.2,2.1,0.6s0.8,1,0.8,1.8c0,0.6-0.1,1-0.4,1.3c-0.2,0.2-0.4,0.4-0.7,0.5
	c0.5,0.1,0.8,0.4,1.1,0.7c0.3,0.4,0.4,0.8,0.4,1.4c0,0.9-0.3,1.5-0.8,2.1c-0.6,0.5-1.4,0.8-2.4,0.8
	C81.4,219.6,80.6,219.3,80.1,218.7z M73,218.7c-0.5-0.6-0.7-1.3-0.7-2.1h1.2c0.1,0.6,0.2,1,0.3,1.3c0.3,0.5,0.8,0.7,1.6,0.7
	c0.6,0,1.1-0.2,1.4-0.5c0.4-0.3,0.5-0.7,0.5-1.2c0-0.6-0.2-1-0.6-1.3c-0.4-0.2-0.9-0.4-1.6-0.4c-0.1,0-0.1,0-0.2,0
	c-0.1,0-0.2,0-0.2,0v-1c0.1,0,0.2,0,0.3,0c0.1,0,0.2,0,0.3,0c0.4,0,0.8-0.1,1-0.2c0.5-0.2,0.7-0.7,0.7-1.2c0-0.4-0.2-0.8-0.5-1
	c-0.3-0.2-0.7-0.4-1.1-0.4c-0.8,0-1.3,0.2-1.6,0.8c-0.2,0.3-0.2,0.7-0.3,1.2h-1.1c0-0.7,0.1-1.2,0.4-1.7c0.5-0.8,1.3-1.2,2.4-1.2
	c0.9,0,1.6,0.2,2.1,0.6s0.8,1,0.8,1.8c0,0.6-0.1,1-0.4,1.3c-0.2,0.2-0.4,0.4-0.7,0.5c0.5,0.1,0.8,0.4,1.1,0.7
	c0.3,0.4,0.4,0.8,0.4,1.4c0,0.9-0.3,1.5-0.8,2.1c-0.6,0.5-1.4,0.8-2.4,0.8C74.2,219.6,73.5,219.3,73,218.7z"/>
<path fill="#FC8D62" d="M157.9,85.1c0,0.4,0.1,0.7,0.3,0.9c0.3,0.4,0.8,0.5,1.5,0.5c0.4,0,0.8-0.1,1.1-0.3c0.3-0.2,0.5-0.5,0.5-0.8
	c0-0.3-0.1-0.5-0.4-0.7c-0.2-0.1-0.5-0.2-1-0.3l-0.9-0.2c-0.6-0.1-1-0.3-1.3-0.5c-0.5-0.3-0.7-0.7-0.7-1.3c0-0.6,0.2-1.1,0.7-1.5
	c0.5-0.4,1.1-0.6,1.8-0.6c1,0,1.7,0.3,2.2,0.9c0.3,0.4,0.4,0.8,0.4,1.2H161c0-0.3-0.1-0.5-0.3-0.7c-0.3-0.3-0.7-0.4-1.3-0.4
	c-0.4,0-0.8,0.1-1,0.2c-0.2,0.2-0.3,0.4-0.3,0.6c0,0.3,0.1,0.5,0.4,0.7c0.2,0.1,0.4,0.2,0.7,0.3l0.7,0.2c0.8,0.2,1.4,0.4,1.6,0.6
	c0.4,0.3,0.7,0.7,0.7,1.4c0,0.6-0.2,1.1-0.7,1.5c-0.4,0.4-1.1,0.7-2.1,0.7c-1,0-1.7-0.2-2.1-0.7c-0.4-0.5-0.6-1-0.7-1.7H157.9z
	 M150.8,78.1h1.1v5.3l2.9-2.8h1.4l-2.6,2.5l2.7,4.2h-1.4l-2.1-3.4l-0.9,0.9v2.5h-1.1V78.1z M148.8,80.9c0.5,0.4,0.8,1,0.9,1.9h-1.1
	c-0.1-0.4-0.2-0.8-0.5-1c-0.2-0.3-0.6-0.4-1.1-0.4c-0.7,0-1.2,0.4-1.5,1.1c-0.2,0.5-0.3,1-0.3,1.7c0,0.7,0.1,1.2,0.4,1.7
	c0.3,0.5,0.7,0.7,1.3,0.7c0.5,0,0.8-0.1,1.1-0.4c0.3-0.3,0.5-0.7,0.6-1.2h1.1c-0.1,0.9-0.4,1.5-0.9,1.9c-0.5,0.4-1.1,0.6-1.9,0.6
	c-0.9,0-1.6-0.3-2.1-1c-0.5-0.6-0.8-1.4-0.8-2.4c0-1.2,0.3-2.1,0.9-2.7c0.6-0.7,1.3-1,2.2-1C147.7,80.4,148.3,80.5,148.8,80.9z
	 M142.2,81.2c0.6,0.6,0.9,1.4,0.9,2.5c0,1.1-0.3,2-0.8,2.7c-0.5,0.7-1.3,1.1-2.4,1.1c-0.9,0-1.7-0.3-2.2-0.9
	c-0.5-0.6-0.8-1.5-0.8-2.5c0-1.1,0.3-2,0.9-2.7c0.6-0.7,1.3-1,2.3-1C140.8,80.4,141.6,80.6,142.2,81.2z M141.5,85.7
	c0.3-0.6,0.4-1.2,0.4-1.9c0-0.6-0.1-1.1-0.3-1.5c-0.3-0.6-0.9-0.9-1.6-0.9c-0.7,0-1.2,0.3-1.5,0.8c-0.3,0.5-0.5,1.2-0.5,1.9
	c0,0.7,0.2,1.3,0.5,1.8c0.3,0.5,0.8,0.7,1.5,0.7C140.7,86.5,141.2,86.2,141.5,85.7z M134.5,78.1h1.1v9.2h-1.1V78.1z M131.5,85.7
	c0.3-0.5,0.5-1.1,0.5-1.9c0-0.7-0.1-1.3-0.5-1.8c-0.3-0.5-0.7-0.7-1.3-0.7c-0.5,0-1,0.2-1.3,0.6c-0.4,0.4-0.6,1-0.6,1.9
	c0,0.6,0.1,1.1,0.2,1.5c0.3,0.7,0.8,1.1,1.7,1.1C130.8,86.5,131.2,86.2,131.5,85.7z M127.2,78h1.1v3.3c0.2-0.3,0.5-0.6,0.9-0.7
	c0.3-0.2,0.7-0.2,1.1-0.2c0.8,0,1.5,0.3,2,0.9c0.5,0.6,0.8,1.4,0.8,2.5c0,1.1-0.3,1.9-0.8,2.6c-0.5,0.7-1.2,1-2.1,1
	c-0.5,0-0.9-0.1-1.3-0.4c-0.2-0.1-0.4-0.4-0.7-0.7v0.9h-1V78z M117.3,78.1h1.1v5.3l2.9-2.8h1.4l-2.6,2.5l2.7,4.2h-1.4l-2.1-3.4
	l-0.9,0.9v2.5h-1.1V78.1z M114.3,85.7c0.3-0.5,0.5-1.5,0.5-2.9c0-1-0.1-1.9-0.4-2.5s-0.7-1-1.5-1c-0.7,0-1.1,0.3-1.5,0.9
	c-0.3,0.6-0.5,1.5-0.5,2.8c0,0.9,0.1,1.6,0.3,2.2c0.3,0.8,0.8,1.3,1.5,1.3C113.4,86.5,113.9,86.2,114.3,85.7z M115.4,79.7
	c0.4,0.7,0.6,1.8,0.6,3c0,1.2-0.2,2.2-0.5,3c-0.5,1.1-1.4,1.7-2.6,1.7c-1.1,0-1.9-0.5-2.4-1.4c-0.4-0.8-0.7-1.8-0.7-3.1
	c0-1,0.1-1.9,0.4-2.6c0.5-1.4,1.4-2,2.7-2C114,78.3,114.9,78.8,115.4,79.7z M103.2,85.2c0.3-0.6,0.8-1.1,1.6-1.6L106,83
	c0.5-0.3,0.9-0.6,1.1-0.8c0.3-0.3,0.5-0.7,0.5-1.2c0-0.5-0.2-0.9-0.5-1.2c-0.3-0.3-0.7-0.5-1.2-0.5c-0.8,0-1.3,0.3-1.6,0.9
	c-0.2,0.3-0.2,0.7-0.3,1.3h-1.1c0-0.8,0.2-1.4,0.4-1.9c0.5-0.9,1.3-1.3,2.6-1.3c1,0,1.8,0.3,2.2,0.8c0.5,0.6,0.7,1.2,0.7,1.8
	c0,0.7-0.2,1.3-0.8,1.8c-0.3,0.3-0.8,0.7-1.6,1.1l-0.9,0.5c-0.4,0.2-0.7,0.4-1,0.6c-0.4,0.4-0.7,0.8-0.8,1.2h4.9v1.1h-6.1
	C102.7,86.5,102.9,85.8,103.2,85.2z M96.1,85.2c0.3-0.6,0.8-1.1,1.6-1.6l1.2-0.7c0.5-0.3,0.9-0.6,1.1-0.8c0.3-0.3,0.5-0.7,0.5-1.2
	c0-0.5-0.2-0.9-0.5-1.2c-0.3-0.3-0.7-0.5-1.2-0.5c-0.8,0-1.3,0.3-1.6,0.9c-0.2,0.3-0.2,0.7-0.3,1.3h-1.1c0-0.8,0.2-1.4,0.4-1.9
	c0.5-0.9,1.3-1.3,2.6-1.3c1,0,1.8,0.3,2.2,0.8c0.5,0.6,0.7,1.2,0.7,1.8c0,0.7-0.2,1.3-0.8,1.8c-0.3,0.3-0.8,0.7-1.6,1.1l-0.9,0.5
	c-0.4,0.2-0.7,0.4-1,0.6c-0.4,0.4-0.7,0.8-0.8,1.2h4.9v1.1h-6.1C95.6,86.5,95.8,85.8,96.1,85.2z"/>
<path fill="#8DA0CB" d="M334.4,94c0,0.4,0.1,0.7,0.3,0.9c0.3,0.4,0.8,0.5,1.5,0.5c0.4,0,0.8-0.1,1.1-0.3c0.3-0.2,0.5-0.5,0.5-0.8
	c0-0.3-0.1-0.5-0.4-0.7c-0.2-0.1-0.5-0.2-1-0.3l-0.9-0.2c-0.6-0.1-1-0.3-1.3-0.5c-0.5-0.3-0.7-0.7-0.7-1.3c0-0.6,0.2-1.1,0.7-1.5
	c0.5-0.4,1.1-0.6,1.8-0.6c1,0,1.7,0.3,2.2,0.9c0.3,0.4,0.4,0.8,0.4,1.2h-1.1c0-0.3-0.1-0.5-0.3-0.7c-0.3-0.3-0.7-0.4-1.3-0.4
	c-0.4,0-0.8,0.1-1,0.2c-0.2,0.2-0.3,0.4-0.3,0.6c0,0.3,0.1,0.5,0.4,0.7c0.2,0.1,0.4,0.2,0.7,0.3l0.7,0.2c0.8,0.2,1.4,0.4,1.6,0.6
	c0.4,0.3,0.7,0.7,0.7,1.4c0,0.6-0.2,1.1-0.7,1.5c-0.4,0.4-1.1,0.7-2.1,0.7c-1,0-1.7-0.2-2.1-0.7c-0.4-0.5-0.6-1-0.7-1.7H334.4z
	 M327.3,87h1.1v5.3l2.9-2.8h1.4l-2.6,2.5l2.7,4.2h-1.4l-2.1-3.4l-0.9,0.9v2.5h-1.1V87z M325.3,89.8c0.5,0.4,0.8,1,0.9,1.9h-1.1
	c-0.1-0.4-0.2-0.8-0.5-1c-0.2-0.3-0.6-0.4-1.1-0.4c-0.7,0-1.2,0.4-1.5,1.1c-0.2,0.5-0.3,1-0.3,1.7s0.1,1.2,0.4,1.7
	c0.3,0.5,0.7,0.7,1.3,0.7c0.5,0,0.8-0.1,1.1-0.4c0.3-0.3,0.5-0.7,0.6-1.2h1.1c-0.1,0.9-0.4,1.5-0.9,1.9c-0.5,0.4-1.1,0.6-1.9,0.6
	c-0.9,0-1.6-0.3-2.1-1c-0.5-0.6-0.8-1.4-0.8-2.4c0-1.2,0.3-2.1,0.9-2.7c0.6-0.7,1.3-1,2.2-1C324.3,89.3,324.9,89.4,325.3,89.8z
	 M318.7,90.1c0.6,0.6,0.9,1.4,0.9,2.5c0,1.1-0.3,2-0.8,2.7c-0.5,0.7-1.3,1.1-2.4,1.1c-0.9,0-1.7-0.3-2.2-0.9
	c-0.5-0.6-0.8-1.5-0.8-2.5c0-1.1,0.3-2,0.9-2.7c0.6-0.7,1.3-1,2.3-1C317.4,89.3,318.1,89.5,318.7,90.1z M318,94.6
	c0.3-0.6,0.4-1.2,0.4-1.9c0-0.6-0.1-1.1-0.3-1.5c-0.3-0.6-0.9-0.9-1.6-0.9c-0.7,0-1.2,0.3-1.5,0.8c-0.3,0.5-0.5,1.2-0.5,1.9
	c0,0.7,0.2,1.3,0.5,1.8c0.3,0.5,0.8,0.7,1.5,0.7C317.2,95.4,317.7,95.1,318,94.6z M311,87h1.1v9.2H311V87z M308,94.6
	c0.3-0.5,0.5-1.1,0.5-1.9c0-0.7-0.1-1.3-0.5-1.8c-0.3-0.5-0.7-0.7-1.3-0.7c-0.5,0-1,0.2-1.3,0.6c-0.4,0.4-0.6,1-0.6,1.9
	c0,0.6,0.1,1.1,0.2,1.5c0.3,0.7,0.8,1.1,1.7,1.1C307.3,95.4,307.7,95.1,308,94.6z M303.8,86.9h1.1v3.3c0.2-0.3,0.5-0.6,0.9-0.7
	c0.3-0.2,0.7-0.2,1.1-0.2c0.8,0,1.5,0.3,2,0.9c0.5,0.6,0.8,1.4,0.8,2.5c0,1.1-0.3,1.9-0.8,2.6c-0.5,0.7-1.2,1-2.1,1
	c-0.5,0-0.9-0.1-1.3-0.4c-0.2-0.1-0.4-0.4-0.7-0.7v0.9h-1V86.9z M289.6,89.4h1.1v1c0.3-0.3,0.5-0.6,0.7-0.7c0.4-0.3,0.8-0.4,1.3-0.4
	c0.5,0,1,0.1,1.3,0.4c0.2,0.1,0.4,0.4,0.5,0.7c0.2-0.4,0.5-0.6,0.9-0.8c0.3-0.2,0.7-0.3,1.1-0.3c0.9,0,1.5,0.3,1.8,1
	c0.2,0.3,0.3,0.8,0.3,1.4v4.5h-1.2v-4.6c0-0.4-0.1-0.8-0.3-0.9c-0.2-0.2-0.5-0.2-0.8-0.2c-0.4,0-0.8,0.1-1.1,0.4
	c-0.3,0.3-0.5,0.8-0.5,1.5v3.9h-1.1v-4.4c0-0.5-0.1-0.8-0.2-1c-0.2-0.3-0.5-0.5-1-0.5c-0.4,0-0.8,0.2-1.2,0.5
	c-0.3,0.3-0.5,0.9-0.5,1.8v3.6h-1.1V89.4z M283.3,93.9c0.1,0.6,0.4,1.1,0.9,1.3c0.3,0.1,0.6,0.2,0.9,0.2c0.7,0,1.2-0.2,1.5-0.6
	c0.3-0.4,0.5-0.9,0.5-1.4c0-0.6-0.2-1.1-0.6-1.4c-0.4-0.3-0.8-0.5-1.4-0.5c-0.4,0-0.7,0.1-1,0.2c-0.3,0.2-0.5,0.4-0.7,0.6l-1-0.1
	l0.7-4.8h4.7v1.1h-3.8l-0.4,2.5c0.2-0.2,0.4-0.3,0.6-0.4c0.3-0.1,0.7-0.2,1.2-0.2c0.8,0,1.5,0.3,2.1,0.8c0.6,0.5,0.9,1.2,0.9,2
	c0,0.8-0.3,1.6-0.8,2.2c-0.5,0.6-1.4,1-2.5,1c-0.7,0-1.4-0.2-1.9-0.6c-0.6-0.4-0.9-1-0.9-1.9H283.3z M279.2,94.8h1.3v1.4h-1.3V94.8z
	 M272.2,89.8v-0.9c0.8-0.1,1.4-0.2,1.7-0.4c0.3-0.2,0.6-0.6,0.7-1.3h0.9v8.9h-1.2v-6.3H272.2z"/>
<g>
	<defs>
		<rect id="SVGID_1_" x="59" y="50" width="282" height="192"/>
	</defs>
	<clipPath id="SVGID_2_">
		<use xlink:href="#SVGID_1_"  overflow="visible"/>
	</clipPath>
	
		<polyline clip-path="url(#SVGID_2_)" fill="none" stroke="#808080" stroke-width="0.5" stroke-miterlimit="10" stroke-dasharray="5,5" points="
		60,241.1 63.3,184.5 67.7,109 76.5,-42.1 94,-344.1 129.2,-948.2 94,-344.1 199.4,-2156.4 340,-4572.9 	"/>
	<path clip-path="url(#SVGID_2_)" fill="#808080" d="M98.1,54.2h1.1v9.2h-1.1V54.2z M94.6,59.3c0.3,0,0.4-0.1,0.5-0.3
		c0.1-0.1,0.1-0.2,0.1-0.4c0-0.4-0.1-0.7-0.4-0.8c-0.3-0.2-0.7-0.3-1.2-0.3c-0.6,0-1,0.2-1.2,0.5c-0.1,0.2-0.2,0.4-0.3,0.8H91
		c0-0.8,0.3-1.4,0.8-1.7c0.5-0.3,1.1-0.5,1.8-0.5c0.8,0,1.4,0.1,1.9,0.4c0.5,0.3,0.7,0.8,0.7,1.4v3.9c0,0.1,0,0.2,0.1,0.3
		c0,0.1,0.1,0.1,0.3,0.1c0.1,0,0.1,0,0.2,0c0.1,0,0.1,0,0.2,0v0.8c-0.2,0.1-0.3,0.1-0.4,0.1c-0.1,0-0.2,0-0.4,0
		c-0.4,0-0.7-0.1-0.8-0.4c-0.1-0.1-0.2-0.4-0.2-0.6c-0.2,0.3-0.6,0.6-1,0.8c-0.4,0.2-0.9,0.3-1.4,0.3c-0.6,0-1.1-0.2-1.5-0.6
		c-0.4-0.4-0.6-0.9-0.6-1.4c0-0.6,0.2-1.1,0.6-1.4c0.4-0.3,0.9-0.6,1.5-0.6L94.6,59.3z M92.2,62.3c0.2,0.2,0.5,0.3,0.8,0.3
		c0.4,0,0.8-0.1,1.2-0.3c0.6-0.3,0.9-0.8,0.9-1.5v-0.9c-0.1,0.1-0.3,0.2-0.5,0.2c-0.2,0.1-0.4,0.1-0.6,0.1l-0.7,0.1
		c-0.4,0.1-0.7,0.1-0.9,0.3c-0.3,0.2-0.5,0.5-0.5,0.9C91.8,61.9,91.9,62.2,92.2,62.3z M88.4,59.5c0-0.5-0.2-0.9-0.3-1.2
		c-0.3-0.5-0.8-0.8-1.5-0.8c-0.5,0-0.9,0.2-1.3,0.6c-0.3,0.4-0.5,0.8-0.6,1.4H88.4z M88,56.8c0.4,0.2,0.8,0.5,1,0.9
		c0.2,0.3,0.4,0.7,0.4,1.2c0.1,0.3,0.1,0.8,0.1,1.5h-4.9c0,0.7,0.2,1.2,0.5,1.6c0.3,0.4,0.8,0.6,1.4,0.6c0.6,0,1.1-0.2,1.4-0.6
		c0.2-0.2,0.3-0.5,0.4-0.8h1.1c0,0.2-0.1,0.5-0.3,0.8c-0.2,0.3-0.4,0.5-0.6,0.7c-0.3,0.3-0.8,0.6-1.3,0.7c-0.3,0.1-0.6,0.1-0.9,0.1
		c-0.8,0-1.5-0.3-2.1-0.9c-0.6-0.6-0.9-1.5-0.9-2.5c0-1.1,0.3-1.9,0.9-2.6c0.6-0.7,1.3-1,2.3-1C87.1,56.5,87.6,56.6,88,56.8z
		 M80.4,56.9c0.2,0.1,0.4,0.3,0.7,0.7v-3.4h1.1v9.2h-1v-0.9c-0.3,0.4-0.6,0.7-0.9,0.9c-0.4,0.2-0.8,0.3-1.2,0.3
		c-0.7,0-1.4-0.3-1.9-0.9c-0.5-0.6-0.8-1.5-0.8-2.5c0-1,0.2-1.8,0.7-2.5c0.5-0.7,1.2-1.1,2.1-1.1C79.6,56.5,80.1,56.7,80.4,56.9z
		 M77.9,61.9c0.3,0.5,0.8,0.7,1.5,0.7c0.5,0,0.9-0.2,1.3-0.7c0.3-0.4,0.5-1.1,0.5-1.9c0-0.8-0.2-1.5-0.5-1.9
		c-0.3-0.4-0.8-0.6-1.3-0.6c-0.6,0-1,0.2-1.4,0.7c-0.4,0.4-0.5,1.1-0.5,1.9C77.4,60.8,77.6,61.4,77.9,61.9z M73.6,54.2h1.3v9.2h-1.3
		V54.2z"/>
</g>
<line fill="none" stroke="#292724" stroke-miterlimit="10" x1="60" y1="270" x2="340" y2="270"/>
<line fill="none" stroke="#292724" stroke-miterlimit="10" x1="60" y1="270" x2="60" y2="265"/>
<line fill="none" stroke="#292724" stroke-miterlimit="10" x1="129.2" y1="270" x2="129.2" y2="265"/>
<line fill="none" stroke="#292724" stroke-miterlimit="10" x1="199.4" y1="270" x2="199.4" y2="265"/>
<line fill="none" stroke="#292724" stroke-miterlimit="10" x1="340" y1="270" x2="340" y2="265"/>
<path fill="#292724" d="M63.9,276.4c-0.3-0.3-0.4-0.6-0.4-1.1c0-0.6,0.2-1,0.6-1.4c0.4-0.4,1-0.6,1.7-0.6c0.7,0,1.3,0.2,1.7,0.6
	c0.4,0.4,0.6,0.8,0.6,1.3c0,0.5-0.1,0.8-0.4,1.1c-0.1,0.2-0.3,0.3-0.6,0.5c0.3,0.1,0.6,0.3,0.7,0.5c0.3,0.3,0.5,0.8,0.5,1.4
	c0,0.7-0.2,1.2-0.7,1.7c-0.4,0.5-1.1,0.7-1.9,0.7c-0.7,0-1.3-0.2-1.8-0.6c-0.5-0.4-0.8-1-0.8-1.7c0-0.4,0.1-0.8,0.3-1.1
	c0.2-0.3,0.5-0.6,1-0.7C64.2,276.6,64,276.5,63.9,276.4z M66.9,279.7c0.3-0.2,0.4-0.6,0.4-1.1c0-0.5-0.1-0.8-0.4-1.1
	c-0.3-0.2-0.7-0.4-1.1-0.4c-0.4,0-0.8,0.1-1.1,0.4c-0.3,0.3-0.4,0.6-0.4,1.1c0,0.4,0.1,0.7,0.4,1c0.3,0.3,0.7,0.4,1.2,0.4
	C66.3,280.1,66.6,280,66.9,279.7z M66.7,276c0.2-0.2,0.3-0.5,0.3-0.8c0-0.3-0.1-0.5-0.3-0.8c-0.2-0.2-0.6-0.4-1-0.4
	c-0.5,0-0.8,0.1-1,0.4c-0.2,0.2-0.3,0.5-0.3,0.8c0,0.4,0.1,0.6,0.4,0.8c0.3,0.2,0.6,0.3,0.9,0.3C66.2,276.4,66.5,276.3,66.7,276z
	 M57.7,279c0.2-0.5,0.7-0.9,1.4-1.3l1-0.6c0.4-0.3,0.8-0.5,0.9-0.7c0.3-0.3,0.4-0.6,0.4-1c0-0.4-0.1-0.8-0.4-1
	c-0.3-0.3-0.6-0.4-1-0.4c-0.6,0-1.1,0.2-1.3,0.7c-0.1,0.3-0.2,0.6-0.2,1.1h-1c0-0.6,0.1-1.2,0.4-1.6c0.4-0.7,1.1-1.1,2.2-1.1
	c0.9,0,1.5,0.2,1.9,0.7c0.4,0.5,0.6,1,0.6,1.5c0,0.6-0.2,1.1-0.6,1.5c-0.2,0.2-0.7,0.5-1.3,0.9l-0.7,0.4c-0.3,0.2-0.6,0.4-0.8,0.5
	c-0.3,0.3-0.6,0.6-0.7,1h4.1v0.9h-5.1C57.3,280.1,57.4,279.5,57.7,279z M52,275.4v-0.7c0.7-0.1,1.2-0.2,1.4-0.3
	c0.3-0.2,0.5-0.5,0.6-1.1h0.7v7.4h-1v-5.3H52z"/>
<path fill="#292724" d="M135.7,279c0.2-0.5,0.7-0.9,1.4-1.3l1-0.6c0.4-0.3,0.8-0.5,0.9-0.7c0.3-0.3,0.4-0.6,0.4-1
	c0-0.4-0.1-0.8-0.4-1c-0.3-0.3-0.6-0.4-1-0.4c-0.6,0-1.1,0.2-1.3,0.7c-0.1,0.3-0.2,0.6-0.2,1.1h-1c0-0.6,0.1-1.2,0.4-1.6
	c0.4-0.7,1.1-1.1,2.2-1.1c0.9,0,1.5,0.2,1.9,0.7c0.4,0.5,0.6,1,0.6,1.5c0,0.6-0.2,1.1-0.6,1.5c-0.2,0.2-0.7,0.5-1.3,0.9l-0.7,0.4
	c-0.3,0.2-0.6,0.4-0.8,0.5c-0.3,0.3-0.6,0.6-0.7,1h4.1v0.9h-5.1C135.3,280.1,135.5,279.5,135.7,279z M132.9,277
	c0.3-0.2,0.5-0.7,0.5-1.3c0-0.5-0.1-1-0.4-1.2c-0.3-0.3-0.6-0.4-1.1-0.4c-0.5,0-0.8,0.2-1.1,0.5c-0.3,0.3-0.4,0.7-0.4,1.2
	c0,0.5,0.1,0.9,0.4,1.2c0.2,0.3,0.6,0.4,1.1,0.4C132.2,277.4,132.6,277.3,132.9,277z M130.5,278.9c0,0.5,0.2,0.9,0.6,1.1
	c0.2,0.1,0.4,0.2,0.6,0.2c0.4,0,0.8-0.2,1.1-0.6c0.3-0.4,0.5-1.1,0.7-2.3c-0.2,0.3-0.5,0.6-0.8,0.7c-0.3,0.1-0.6,0.2-1,0.2
	c-0.7,0-1.3-0.2-1.7-0.7c-0.4-0.4-0.6-1-0.6-1.7c0-0.7,0.2-1.3,0.6-1.8c0.4-0.5,1-0.8,1.8-0.8c1.1,0,1.8,0.5,2.2,1.5
	c0.2,0.5,0.3,1.2,0.3,2c0,0.9-0.1,1.7-0.4,2.4c-0.5,1.2-1.2,1.8-2.3,1.8c-0.7,0-1.3-0.2-1.7-0.6c-0.4-0.4-0.6-0.9-0.6-1.4H130.5z
	 M124.1,275.4v-0.7c0.7-0.1,1.2-0.2,1.4-0.3c0.3-0.2,0.5-0.5,0.6-1.1h0.7v7.4h-1v-5.3H124.1z M118.2,276.4c-0.3-0.3-0.4-0.6-0.4-1.1
	c0-0.6,0.2-1,0.6-1.4c0.4-0.4,1-0.6,1.7-0.6c0.7,0,1.3,0.2,1.7,0.6c0.4,0.4,0.6,0.8,0.6,1.3c0,0.5-0.1,0.8-0.4,1.1
	c-0.1,0.2-0.3,0.3-0.6,0.5c0.3,0.1,0.6,0.3,0.7,0.5c0.3,0.3,0.5,0.8,0.5,1.4c0,0.7-0.2,1.2-0.7,1.7c-0.4,0.5-1.1,0.7-1.9,0.7
	c-0.7,0-1.3-0.2-1.8-0.6c-0.5-0.4-0.8-1-0.8-1.7c0-0.4,0.1-0.8,0.3-1.1c0.2-0.3,0.5-0.6,1-0.7C118.5,276.6,118.3,276.5,118.2,276.4z
	 M121.2,279.7c0.3-0.2,0.4-0.6,0.4-1.1c0-0.5-0.1-0.8-0.4-1.1c-0.3-0.2-0.7-0.4-1.1-0.4c-0.4,0-0.8,0.1-1.1,0.4
	c-0.3,0.3-0.4,0.6-0.4,1.1c0,0.4,0.1,0.7,0.4,1c0.3,0.3,0.7,0.4,1.2,0.4C120.6,280.1,120.9,280,121.2,279.7z M121,276
	c0.2-0.2,0.3-0.5,0.3-0.8c0-0.3-0.1-0.5-0.3-0.8c-0.2-0.2-0.6-0.4-1-0.4c-0.5,0-0.8,0.1-1,0.4c-0.2,0.2-0.3,0.5-0.3,0.8
	c0,0.4,0.1,0.6,0.4,0.8c0.3,0.2,0.6,0.3,0.9,0.3C120.5,276.4,120.8,276.3,121,276z"/>
<path fill="#292724" d="M211.7,280.7v-1.8h-3.3V278l3.4-4.7h0.8v4.8h1.1v0.8h-1.1v1.8H211.7z M211.7,278.1v-3.4l-2.4,3.4H211.7z
	 M203.3,276.4c-0.3-0.3-0.4-0.6-0.4-1.1c0-0.6,0.2-1,0.6-1.4c0.4-0.4,1-0.6,1.7-0.6c0.7,0,1.3,0.2,1.7,0.6c0.4,0.4,0.6,0.8,0.6,1.3
	c0,0.5-0.1,0.8-0.4,1.1c-0.1,0.2-0.3,0.3-0.6,0.5c0.3,0.1,0.6,0.3,0.7,0.5c0.3,0.3,0.5,0.8,0.5,1.4c0,0.7-0.2,1.2-0.7,1.7
	c-0.4,0.5-1.1,0.7-1.9,0.7c-0.7,0-1.3-0.2-1.8-0.6c-0.5-0.4-0.8-1-0.8-1.7c0-0.4,0.1-0.8,0.3-1.1c0.2-0.3,0.5-0.6,1-0.7
	C203.6,276.6,203.4,276.5,203.3,276.4z M206.3,279.7c0.3-0.2,0.4-0.6,0.4-1.1c0-0.5-0.1-0.8-0.4-1.1c-0.3-0.2-0.7-0.4-1.1-0.4
	c-0.4,0-0.8,0.1-1.1,0.4c-0.3,0.3-0.4,0.6-0.4,1.1c0,0.4,0.1,0.7,0.4,1c0.3,0.3,0.7,0.4,1.2,0.4C205.6,280.1,206,280,206.3,279.7z
	 M206.1,276c0.2-0.2,0.3-0.5,0.3-0.8c0-0.3-0.1-0.5-0.3-0.8c-0.2-0.2-0.6-0.4-1-0.4s-0.8,0.1-1,0.4c-0.2,0.2-0.3,0.5-0.3,0.8
	c0,0.4,0.1,0.6,0.4,0.8c0.3,0.2,0.6,0.3,0.9,0.3C205.6,276.4,205.9,276.3,206.1,276z M197.2,280.2c-0.4-0.5-0.6-1.1-0.6-1.8h1
	c0,0.5,0.1,0.8,0.3,1.1c0.2,0.4,0.7,0.6,1.3,0.6c0.5,0,0.9-0.1,1.2-0.4c0.3-0.3,0.4-0.6,0.4-1c0-0.5-0.2-0.9-0.5-1.1
	c-0.3-0.2-0.8-0.3-1.3-0.3c-0.1,0-0.1,0-0.2,0c-0.1,0-0.1,0-0.2,0v-0.8c0.1,0,0.2,0,0.2,0c0.1,0,0.1,0,0.2,0c0.4,0,0.6-0.1,0.9-0.2
	c0.4-0.2,0.6-0.5,0.6-1c0-0.4-0.1-0.7-0.4-0.9s-0.6-0.3-0.9-0.3c-0.6,0-1.1,0.2-1.3,0.6c-0.1,0.2-0.2,0.6-0.2,1h-0.9
	c0-0.6,0.1-1,0.3-1.4c0.4-0.7,1.1-1,2-1c0.8,0,1.3,0.2,1.8,0.5c0.4,0.3,0.6,0.8,0.6,1.5c0,0.5-0.1,0.8-0.4,1.1
	c-0.2,0.2-0.4,0.3-0.6,0.4c0.4,0.1,0.7,0.3,0.9,0.6c0.2,0.3,0.3,0.7,0.3,1.1c0,0.7-0.2,1.3-0.7,1.7c-0.5,0.4-1.1,0.7-2,0.7
	C198.2,280.9,197.6,280.7,197.2,280.2z M194.5,279.6c0.2-0.3,0.4-0.7,0.4-1.2c0-0.4-0.1-0.7-0.3-1.1c-0.2-0.3-0.6-0.5-1.2-0.5
	c-0.4,0-0.8,0.1-1.1,0.4c-0.3,0.3-0.5,0.7-0.5,1.2c0,0.5,0.1,0.9,0.4,1.2c0.3,0.3,0.7,0.5,1.1,0.5
	C193.9,280.1,194.3,279.9,194.5,279.6z M195.2,273.9c0.3,0.4,0.5,0.9,0.5,1.3h-0.9c-0.1-0.3-0.1-0.5-0.3-0.7c-0.2-0.3-0.6-0.5-1-0.5
	c-0.5,0-0.9,0.2-1.2,0.7c-0.3,0.5-0.5,1.2-0.5,2.1c0.2-0.3,0.5-0.6,0.8-0.7c0.3-0.1,0.6-0.2,1-0.2c0.6,0,1.2,0.2,1.6,0.6
	c0.5,0.4,0.7,1,0.7,1.8c0,0.7-0.2,1.3-0.7,1.8c-0.4,0.5-1.1,0.8-1.9,0.8c-0.7,0-1.3-0.3-1.8-0.8c-0.5-0.5-0.8-1.4-0.8-2.7
	c0-0.9,0.1-1.7,0.3-2.4c0.4-1.2,1.2-1.9,2.4-1.9C194.3,273.2,194.9,273.4,195.2,273.9z M185.5,275.4v-0.7c0.7-0.1,1.2-0.2,1.4-0.3
	c0.3-0.2,0.5-0.5,0.6-1.1h0.7v7.4h-1v-5.3H185.5z"/>
<path fill="#292724" d="M349.7,276.4c-0.3-0.3-0.4-0.6-0.4-1.1c0-0.6,0.2-1,0.6-1.4c0.4-0.4,1-0.6,1.7-0.6c0.7,0,1.3,0.2,1.7,0.6
	c0.4,0.4,0.6,0.8,0.6,1.3c0,0.5-0.1,0.8-0.4,1.1c-0.1,0.2-0.3,0.3-0.6,0.5c0.3,0.1,0.6,0.3,0.7,0.5c0.3,0.3,0.5,0.8,0.5,1.4
	c0,0.7-0.2,1.2-0.7,1.7s-1.1,0.7-1.9,0.7c-0.7,0-1.3-0.2-1.8-0.6c-0.5-0.4-0.8-1-0.8-1.7c0-0.4,0.1-0.8,0.3-1.1
	c0.2-0.3,0.5-0.6,1-0.7C350.1,276.6,349.9,276.5,349.7,276.4z M352.8,279.7c0.3-0.2,0.4-0.6,0.4-1.1c0-0.5-0.1-0.8-0.4-1.1
	c-0.3-0.2-0.7-0.4-1.1-0.4c-0.4,0-0.8,0.1-1.1,0.4c-0.3,0.3-0.4,0.6-0.4,1.1c0,0.4,0.1,0.7,0.4,1c0.3,0.3,0.7,0.4,1.2,0.4
	C352.1,280.1,352.5,280,352.8,279.7z M352.6,276c0.2-0.2,0.3-0.5,0.3-0.8c0-0.3-0.1-0.5-0.3-0.8c-0.2-0.2-0.6-0.4-1-0.4
	c-0.5,0-0.8,0.1-1,0.4c-0.2,0.2-0.3,0.5-0.3,0.8c0,0.4,0.1,0.6,0.4,0.8c0.3,0.2,0.6,0.3,0.9,0.3C352,276.4,352.4,276.3,352.6,276z
	 M347,279.6c0.2-0.3,0.4-0.7,0.4-1.2c0-0.4-0.1-0.7-0.3-1.1c-0.2-0.3-0.6-0.5-1.2-0.5c-0.4,0-0.8,0.1-1.1,0.4
	c-0.3,0.3-0.5,0.7-0.5,1.2c0,0.5,0.1,0.9,0.4,1.2c0.3,0.3,0.7,0.5,1.1,0.5C346.3,280.1,346.7,279.9,347,279.6z M347.7,273.9
	c0.3,0.4,0.5,0.9,0.5,1.3h-0.9c-0.1-0.3-0.1-0.5-0.3-0.7c-0.2-0.3-0.6-0.5-1-0.5c-0.5,0-0.9,0.2-1.2,0.7c-0.3,0.5-0.5,1.2-0.5,2.1
	c0.2-0.3,0.5-0.6,0.8-0.7c0.3-0.1,0.6-0.2,1-0.2c0.6,0,1.2,0.2,1.6,0.6c0.5,0.4,0.7,1,0.7,1.8c0,0.7-0.2,1.3-0.7,1.8
	c-0.4,0.5-1.1,0.8-1.9,0.8c-0.7,0-1.3-0.3-1.8-0.8c-0.5-0.5-0.8-1.4-0.8-2.7c0-0.9,0.1-1.7,0.3-2.4c0.4-1.2,1.2-1.9,2.4-1.9
	C346.8,273.2,347.3,273.4,347.7,273.9z M342.4,273.4v0.8c-0.2,0.2-0.6,0.6-1,1.2c-0.4,0.6-0.7,1.2-1.1,1.9c-0.3,0.6-0.5,1.2-0.7,1.8
	c-0.1,0.3-0.2,0.9-0.4,1.7h-1c0.2-1.4,0.8-2.8,1.6-4.2c0.5-0.8,1-1.5,1.5-2.1h-4.1v-0.9H342.4z M331.7,279c0.2-0.5,0.7-0.9,1.4-1.3
	l1-0.6c0.4-0.3,0.8-0.5,0.9-0.7c0.3-0.3,0.4-0.6,0.4-1c0-0.4-0.1-0.8-0.4-1s-0.6-0.4-1-0.4c-0.6,0-1.1,0.2-1.3,0.7
	c-0.1,0.3-0.2,0.6-0.2,1.1h-1c0-0.6,0.1-1.2,0.4-1.6c0.4-0.7,1.1-1.1,2.2-1.1c0.9,0,1.5,0.2,1.9,0.7c0.4,0.5,0.6,1,0.6,1.5
	c0,0.6-0.2,1.1-0.6,1.5c-0.2,0.2-0.7,0.5-1.3,0.9l-0.7,0.4c-0.3,0.2-0.6,0.4-0.8,0.5c-0.3,0.3-0.6,0.6-0.7,1h4.1v0.9h-5.1
	C331.3,280.1,331.4,279.5,331.7,279z M325.9,280.2c-0.4-0.5-0.6-1.1-0.6-1.8h1c0,0.5,0.1,0.8,0.3,1.1c0.2,0.4,0.7,0.6,1.3,0.6
	c0.5,0,0.9-0.1,1.2-0.4c0.3-0.3,0.4-0.6,0.4-1c0-0.5-0.2-0.9-0.5-1.1c-0.3-0.2-0.8-0.3-1.3-0.3c-0.1,0-0.1,0-0.2,0
	c-0.1,0-0.1,0-0.2,0v-0.8c0.1,0,0.2,0,0.2,0c0.1,0,0.1,0,0.2,0c0.4,0,0.6-0.1,0.9-0.2c0.4-0.2,0.6-0.5,0.6-1c0-0.4-0.1-0.7-0.4-0.9
	c-0.3-0.2-0.6-0.3-0.9-0.3c-0.6,0-1.1,0.2-1.3,0.6c-0.1,0.2-0.2,0.6-0.2,1h-0.9c0-0.6,0.1-1,0.3-1.4c0.4-0.7,1.1-1,2-1
	c0.8,0,1.3,0.2,1.8,0.5c0.4,0.3,0.6,0.8,0.6,1.5c0,0.5-0.1,0.8-0.4,1.1c-0.2,0.2-0.4,0.3-0.6,0.4c0.4,0.1,0.7,0.3,0.9,0.6
	c0.2,0.3,0.3,0.7,0.3,1.1c0,0.7-0.2,1.3-0.7,1.7c-0.5,0.4-1.1,0.7-2,0.7C326.9,280.9,326.2,280.7,325.9,280.2z"/>
<path fill="#292724" d="M246.9,295.2c0,0.3,0.1,0.5,0.2,0.7c0.2,0.2,0.6,0.4,1.2,0.4c0.4,0,0.6-0.1,0.8-0.2c0.2-0.1,0.3-0.3,0.3-0.5
	c0-0.2-0.1-0.4-0.2-0.5c-0.2-0.1-0.8-0.3-1.9-0.5c-0.8-0.2-1.3-0.4-1.6-0.7c-0.3-0.3-0.5-0.7-0.5-1.2c0-0.6,0.2-1.2,0.7-1.6
	c0.5-0.5,1.2-0.7,2.1-0.7c0.8,0,1.5,0.2,2.1,0.5c0.5,0.3,0.8,0.9,0.9,1.8h-1.8c0-0.2-0.1-0.4-0.2-0.5c-0.2-0.2-0.5-0.4-1-0.4
	c-0.4,0-0.7,0.1-0.8,0.2c-0.2,0.1-0.2,0.3-0.2,0.4c0,0.2,0.1,0.4,0.3,0.4c0.2,0.1,0.8,0.3,1.9,0.5c0.7,0.2,1.2,0.4,1.6,0.8
	c0.4,0.3,0.5,0.8,0.5,1.3c0,0.7-0.3,1.2-0.8,1.7c-0.5,0.4-1.3,0.6-2.3,0.6c-1.1,0-1.9-0.2-2.4-0.7c-0.5-0.5-0.8-1-0.8-1.7H246.9z
	 M242.6,290.7c0.5,0.2,0.8,0.5,1.1,1c0.3,0.4,0.4,0.9,0.5,1.4c0,0.3,0.1,0.8,0.1,1.3h-4.7c0,0.7,0.2,1.2,0.6,1.4
	c0.2,0.2,0.5,0.3,0.9,0.3c0.4,0,0.7-0.1,0.9-0.3c0.1-0.1,0.2-0.3,0.3-0.5h1.8c0,0.4-0.3,0.8-0.6,1.2c-0.6,0.7-1.4,1-2.4,1
	c-0.9,0-1.6-0.3-2.3-0.8c-0.7-0.6-1-1.5-1-2.7c0-1.2,0.3-2.1,0.9-2.7c0.6-0.6,1.4-0.9,2.3-0.9C241.7,290.4,242.2,290.5,242.6,290.7z
	 M240.2,292.2c-0.2,0.3-0.4,0.6-0.4,1.1h2.8c0-0.5-0.2-0.8-0.4-1.1c-0.3-0.2-0.6-0.4-1-0.4C240.7,291.8,240.4,292,240.2,292.2z
	 M237.2,290.4c0,0,0.1,0,0.2,0v1.8c-0.1,0-0.2,0-0.3,0c-0.1,0-0.2,0-0.2,0c-0.7,0-1.2,0.2-1.4,0.7c-0.1,0.3-0.2,0.7-0.2,1.2v3.3
	h-1.8v-6.8h1.7v1.2c0.3-0.5,0.5-0.8,0.7-0.9C236.2,290.5,236.6,290.4,237.2,290.4C237.2,290.4,237.2,290.4,237.2,290.4z
	 M231.3,296.5c-0.6,0.7-1.4,1.1-2.6,1.1c-1.2,0-2-0.4-2.6-1.1c-0.6-0.7-0.9-1.6-0.9-2.6c0-1,0.3-1.8,0.9-2.6
	c0.6-0.7,1.4-1.1,2.6-1.1c1.2,0,2,0.4,2.6,1.1c0.6,0.7,0.9,1.6,0.9,2.6C232.2,295,231.9,295.8,231.3,296.5z M229.9,295.5
	c0.3-0.4,0.4-0.9,0.4-1.6s-0.1-1.2-0.4-1.6c-0.3-0.4-0.7-0.6-1.2-0.6c-0.5,0-0.9,0.2-1.2,0.6c-0.3,0.4-0.4,0.9-0.4,1.6
	s0.1,1.2,0.4,1.6c0.3,0.4,0.7,0.6,1.2,0.6C229.2,296.1,229.6,295.9,229.9,295.5z M217.4,289.1c0.8-0.8,1.7-1.1,2.9-1.1
	c1.6,0,2.7,0.5,3.4,1.5c0.4,0.6,0.6,1.1,0.6,1.7h-1.9c-0.1-0.4-0.3-0.8-0.5-1c-0.4-0.4-0.9-0.6-1.6-0.6c-0.7,0-1.2,0.3-1.7,0.8
	c-0.4,0.6-0.6,1.4-0.6,2.4c0,1,0.2,1.8,0.6,2.3c0.4,0.5,1,0.8,1.6,0.8c0.7,0,1.2-0.2,1.5-0.7c0.2-0.2,0.4-0.6,0.5-1.1h1.9
	c-0.2,1-0.6,1.8-1.3,2.4c-0.7,0.6-1.6,0.9-2.6,0.9c-1.3,0-2.4-0.4-3.1-1.3c-0.8-0.9-1.1-2-1.1-3.5
	C216.1,291.2,216.6,290,217.4,289.1z M211.4,288.1c0.1,0,0.2,0,0.4,0v1.4c-0.1,0-0.3,0-0.5,0c-0.2,0-0.4,0-0.5,0.2
	c-0.1,0.1-0.1,0.2-0.1,0.4s0,0.3,0,0.6h1.2v1.3h-1.2v5.5h-1.8v-5.5h-1v-1.3h1v-0.4c0-0.7,0.1-1.2,0.4-1.5c0.3-0.4,0.9-0.6,1.9-0.6
	C211.2,288.1,211.3,288.1,211.4,288.1z M206.4,296.5c-0.6,0.7-1.4,1.1-2.6,1.1c-1.2,0-2-0.4-2.6-1.1c-0.6-0.7-0.9-1.6-0.9-2.6
	c0-1,0.3-1.8,0.9-2.6c0.6-0.7,1.5-1.1,2.6-1.1c1.2,0,2,0.4,2.6,1.1c0.6,0.7,0.9,1.6,0.9,2.6C207.3,295,207,295.8,206.4,296.5z
	 M205,295.5c0.3-0.4,0.4-0.9,0.4-1.6s-0.1-1.2-0.4-1.6c-0.3-0.4-0.7-0.6-1.2-0.6c-0.5,0-0.9,0.2-1.2,0.6c-0.3,0.4-0.4,0.9-0.4,1.6
	s0.1,1.2,0.4,1.6c0.3,0.4,0.7,0.6,1.2,0.6C204.3,296.1,204.7,295.9,205,295.5z M196,290.4c0,0,0.1,0,0.2,0v1.8c-0.1,0-0.2,0-0.3,0
	c-0.1,0-0.2,0-0.2,0c-0.7,0-1.2,0.2-1.4,0.7c-0.1,0.3-0.2,0.7-0.2,1.2v3.3h-1.8v-6.8h1.7v1.2c0.3-0.5,0.5-0.8,0.7-0.9
	C194.9,290.5,195.4,290.4,196,290.4C195.9,290.4,196,290.4,196,290.4z M189.3,290.7c0.5,0.2,0.8,0.5,1.1,1c0.3,0.4,0.4,0.9,0.5,1.4
	c0,0.3,0.1,0.8,0.1,1.3h-4.7c0,0.7,0.2,1.2,0.6,1.4c0.2,0.2,0.5,0.3,0.9,0.3c0.4,0,0.7-0.1,0.9-0.3c0.1-0.1,0.2-0.3,0.3-0.5h1.8
	c0,0.4-0.3,0.8-0.6,1.2c-0.6,0.7-1.4,1-2.4,1c-0.9,0-1.6-0.3-2.3-0.8c-0.7-0.6-1-1.5-1-2.7c0-1.2,0.3-2.1,0.9-2.7
	c0.6-0.6,1.4-0.9,2.3-0.9C188.3,290.4,188.9,290.5,189.3,290.7z M186.8,292.2c-0.2,0.3-0.4,0.6-0.4,1.1h2.8c0-0.5-0.2-0.8-0.4-1.1
	c-0.3-0.2-0.6-0.4-1-0.4C187.4,291.8,187,292,186.8,292.2z M181.6,295.5c0.3-0.4,0.4-0.9,0.4-1.5c0-0.5-0.1-0.9-0.2-1.2
	c-0.2-0.6-0.7-0.9-1.3-0.9c-0.6,0-1.1,0.3-1.3,0.9c-0.1,0.3-0.2,0.7-0.2,1.2c0,0.6,0.1,1.1,0.4,1.4c0.3,0.4,0.7,0.6,1.2,0.6
	C181,296.1,181.3,295.9,181.6,295.5z M183.1,291.4c0.5,0.6,0.8,1.5,0.8,2.5c0,1.1-0.2,1.9-0.8,2.6c-0.5,0.7-1.2,1-2.1,1
	c-0.6,0-1-0.1-1.4-0.3c-0.2-0.1-0.4-0.4-0.7-0.7v0.9h-1.7v-9.2h1.8v3.3c0.2-0.3,0.5-0.6,0.7-0.7c0.3-0.2,0.7-0.3,1.2-0.3
	C181.8,290.4,182.6,290.7,183.1,291.4z M174.4,290.6c0.3,0.1,0.6,0.3,0.8,0.6c0.2,0.2,0.3,0.5,0.4,0.9c0,0.2,0.1,0.6,0.1,1l0,4.3
	h-1.8V293c0-0.3,0-0.5-0.1-0.6c-0.2-0.3-0.4-0.5-0.9-0.5c-0.5,0-0.8,0.2-1,0.6c-0.1,0.2-0.1,0.5-0.1,0.8v4.1h-1.8v-4.1
	c0-0.4,0-0.7-0.1-0.9c-0.1-0.3-0.4-0.5-0.9-0.5c-0.5,0-0.8,0.2-1,0.5c-0.1,0.2-0.1,0.5-0.1,0.8v4.1h-1.8v-6.8h1.7v1
	c0.2-0.4,0.4-0.6,0.6-0.8c0.3-0.3,0.8-0.4,1.3-0.4c0.5,0,0.9,0.1,1.3,0.3c0.3,0.2,0.5,0.5,0.6,0.8c0.2-0.4,0.5-0.7,0.9-0.9
	c0.4-0.2,0.8-0.3,1.2-0.3C173.8,290.4,174.1,290.5,174.4,290.6z M159.8,290.5v4.1c0,0.4,0,0.7,0.1,0.9c0.2,0.3,0.5,0.5,1,0.5
	c0.6,0,1-0.2,1.2-0.7c0.1-0.3,0.2-0.6,0.2-1.1v-3.7h1.8v6.8h-1.7v-1c0,0-0.1,0.1-0.1,0.2c-0.1,0.1-0.1,0.2-0.2,0.3
	c-0.3,0.2-0.5,0.4-0.8,0.5c-0.3,0.1-0.6,0.1-0.9,0.1c-1,0-1.7-0.4-2-1.1c-0.2-0.4-0.3-1-0.3-1.8v-4.1H159.8z M148.9,288.1h2l3.7,6.4
	v-6.4h1.8v9.2h-1.9l-3.8-6.5v6.5h-1.8V288.1z"/>
<line fill="none" stroke="#292724" stroke-miterlimit="10" x1="50" y1="50" x2="50" y2="241.1"/>
<line fill="none" stroke="#292724" stroke-miterlimit="10" x1="50" y1="260" x2="55" y2="260"/>
<line fill="none" stroke="#292724" stroke-miterlimit="10" x1="50" y1="193.3" x2="55" y2="193.3"/>
<line fill="none" stroke="#292724" stroke-miterlimit="10" x1="50" y1="126.7" x2="55" y2="126.7"/>
<line fill="none" stroke="#292724" stroke-miterlimit="10" x1="50" y1="60" x2="55" y2="60"/>
<path fill="#292724" d="M43.4,259c-0.4-0.3-1.2-0.4-2.4-0.4c-0.8,0-1.5,0.1-2.1,0.3s-0.8,0.6-0.8,1.2c0,0.6,0.3,1,0.8,1.2
	c0.5,0.3,1.3,0.4,2.3,0.4c0.8,0,1.4-0.1,1.8-0.2c0.7-0.2,1.1-0.7,1.1-1.3C44.1,259.6,43.8,259.2,43.4,259z M38.4,258
	c0.6-0.3,1.5-0.5,2.5-0.5c1,0,1.9,0.2,2.5,0.5c0.9,0.4,1.4,1.2,1.4,2.1c0,0.9-0.4,1.6-1.2,2c-0.6,0.4-1.5,0.5-2.6,0.5
	c-0.8,0-1.6-0.1-2.2-0.3c-1.1-0.4-1.7-1.2-1.7-2.2C37.3,259.1,37.7,258.5,38.4,258z"/>
<path fill="#292724" d="M43.4,183.5c-0.4-0.3-1.2-0.4-2.4-0.4c-0.8,0-1.5,0.1-2.1,0.3s-0.8,0.6-0.8,1.2c0,0.6,0.3,1,0.8,1.2
	c0.5,0.3,1.3,0.4,2.3,0.4c0.8,0,1.4-0.1,1.8-0.2c0.7-0.2,1.1-0.7,1.1-1.3C44.1,184.2,43.8,183.8,43.4,183.5z M38.4,182.6
	c0.6-0.3,1.5-0.5,2.5-0.5c1,0,1.9,0.2,2.5,0.5c0.9,0.4,1.4,1.2,1.4,2.1c0,0.9-0.4,1.6-1.2,2c-0.6,0.4-1.5,0.5-2.6,0.5
	c-0.8,0-1.6-0.1-2.2-0.3c-1.1-0.4-1.7-1.2-1.7-2.2C37.3,183.7,37.7,183,38.4,182.6z M43.4,189.4c-0.4-0.3-1.2-0.4-2.4-0.4
	c-0.8,0-1.5,0.1-2.1,0.3c-0.5,0.2-0.8,0.6-0.8,1.2c0,0.6,0.3,1,0.8,1.2c0.5,0.3,1.3,0.4,2.3,0.4c0.8,0,1.4-0.1,1.8-0.2
	c0.7-0.2,1.1-0.7,1.1-1.3C44.1,190.1,43.8,189.7,43.4,189.4z M38.4,188.5c0.6-0.3,1.5-0.5,2.5-0.5c1,0,1.9,0.2,2.5,0.5
	c0.9,0.4,1.4,1.2,1.4,2.1c0,0.9-0.4,1.6-1.2,2c-0.6,0.4-1.5,0.5-2.6,0.5c-0.8,0-1.6-0.1-2.2-0.3c-1.1-0.4-1.7-1.2-1.7-2.2
	C37.3,189.6,37.7,188.9,38.4,188.5z M43.4,195.4c-0.4-0.3-1.2-0.4-2.4-0.4c-0.8,0-1.5,0.1-2.1,0.3s-0.8,0.6-0.8,1.2
	c0,0.6,0.3,1,0.8,1.2c0.5,0.3,1.3,0.4,2.3,0.4c0.8,0,1.4-0.1,1.8-0.2c0.7-0.2,1.1-0.7,1.1-1.3C44.1,196,43.8,195.6,43.4,195.4z
	 M38.4,194.4c0.6-0.3,1.5-0.5,2.5-0.5c1,0,1.9,0.2,2.5,0.5c0.9,0.4,1.4,1.2,1.4,2.1c0,0.9-0.4,1.6-1.2,2c-0.6,0.4-1.5,0.5-2.6,0.5
	c-0.8,0-1.6-0.1-2.2-0.3c-1.1-0.4-1.7-1.2-1.7-2.2C37.3,195.5,37.7,194.9,38.4,194.4z M39.4,204.3h-0.7c-0.1-0.7-0.2-1.2-0.3-1.4
	c-0.2-0.3-0.5-0.5-1.1-0.6v-0.7h7.4v1h-5.3V204.3z"/>
<path fill="#292724" d="M43.4,116.8c-0.4-0.3-1.2-0.4-2.4-0.4c-0.8,0-1.5,0.1-2.1,0.3s-0.8,0.6-0.8,1.2c0,0.6,0.3,1,0.8,1.2
	c0.5,0.3,1.3,0.4,2.3,0.4c0.8,0,1.4-0.1,1.8-0.2c0.7-0.2,1.1-0.7,1.1-1.3C44.1,117.5,43.8,117.1,43.4,116.8z M38.4,115.9
	c0.6-0.3,1.5-0.5,2.5-0.5c1,0,1.9,0.2,2.5,0.5c0.9,0.4,1.4,1.2,1.4,2.1c0,0.9-0.4,1.6-1.2,2c-0.6,0.4-1.5,0.5-2.6,0.5
	c-0.8,0-1.6-0.1-2.2-0.3c-1.1-0.4-1.7-1.2-1.7-2.2C37.3,117,37.7,116.3,38.4,115.9z M43.4,122.8c-0.4-0.3-1.2-0.4-2.4-0.4
	c-0.8,0-1.5,0.1-2.1,0.3s-0.8,0.6-0.8,1.2c0,0.6,0.3,1,0.8,1.2c0.5,0.3,1.3,0.4,2.3,0.4c0.8,0,1.4-0.1,1.8-0.2
	c0.7-0.2,1.1-0.7,1.1-1.3C44.1,123.4,43.8,123.1,43.4,122.8z M38.4,121.8c0.6-0.3,1.5-0.5,2.5-0.5c1,0,1.9,0.2,2.5,0.5
	c0.9,0.4,1.4,1.2,1.4,2.1c0,0.9-0.4,1.6-1.2,2c-0.6,0.4-1.5,0.5-2.6,0.5c-0.8,0-1.6-0.1-2.2-0.3c-1.1-0.4-1.7-1.2-1.7-2.2
	C37.3,122.9,37.7,122.3,38.4,121.8z M43.4,128.7c-0.4-0.3-1.2-0.4-2.4-0.4c-0.8,0-1.5,0.1-2.1,0.3s-0.8,0.6-0.8,1.2
	c0,0.6,0.3,1,0.8,1.2c0.5,0.3,1.3,0.4,2.3,0.4c0.8,0,1.4-0.1,1.8-0.2c0.7-0.2,1.1-0.7,1.1-1.3C44.1,129.4,43.8,129,43.4,128.7z
	 M38.4,127.8c0.6-0.3,1.5-0.5,2.5-0.5c1,0,1.9,0.2,2.5,0.5c0.9,0.4,1.4,1.2,1.4,2.1c0,0.9-0.4,1.6-1.2,2c-0.6,0.4-1.5,0.5-2.6,0.5
	c-0.8,0-1.6-0.1-2.2-0.3c-1.1-0.4-1.7-1.2-1.7-2.2C37.3,128.9,37.7,128.2,38.4,127.8z M43,137.9c-0.5-0.2-0.9-0.7-1.3-1.4l-0.6-1
	c-0.3-0.4-0.5-0.8-0.7-0.9c-0.3-0.3-0.6-0.4-1-0.4c-0.4,0-0.8,0.1-1,0.4c-0.3,0.3-0.4,0.6-0.4,1c0,0.6,0.2,1.1,0.7,1.3
	c0.3,0.1,0.6,0.2,1.1,0.2v1c-0.6,0-1.2-0.1-1.6-0.4c-0.7-0.4-1.1-1.1-1.1-2.2c0-0.9,0.2-1.5,0.7-1.9c0.5-0.4,1-0.6,1.5-0.6
	c0.6,0,1.1,0.2,1.5,0.6c0.2,0.2,0.5,0.7,0.9,1.3l0.4,0.7c0.2,0.3,0.4,0.6,0.5,0.8c0.3,0.3,0.6,0.6,1,0.7v-4.1h0.9v5.1
	C44.1,138.3,43.5,138.2,43,137.9z"/>
<path fill="#292724" d="M43.4,50.2c-0.4-0.3-1.2-0.4-2.4-0.4c-0.8,0-1.5,0.1-2.1,0.3s-0.8,0.6-0.8,1.2c0,0.6,0.3,1,0.8,1.2
	c0.5,0.3,1.3,0.4,2.3,0.4c0.8,0,1.4-0.1,1.8-0.2c0.7-0.2,1.1-0.7,1.1-1.3C44.1,50.8,43.8,50.5,43.4,50.2z M38.4,49.2
	c0.6-0.3,1.5-0.5,2.5-0.5c1,0,1.9,0.2,2.5,0.5c0.9,0.4,1.4,1.2,1.4,2.1c0,0.9-0.4,1.6-1.2,2c-0.6,0.4-1.5,0.5-2.6,0.5
	c-0.8,0-1.6-0.1-2.2-0.3c-1.1-0.4-1.7-1.2-1.7-2.2C37.3,50.4,37.7,49.7,38.4,49.2z M43.4,56.1c-0.4-0.3-1.2-0.4-2.4-0.4
	c-0.8,0-1.5,0.1-2.1,0.3s-0.8,0.6-0.8,1.2c0,0.6,0.3,1,0.8,1.2c0.5,0.3,1.3,0.4,2.3,0.4c0.8,0,1.4-0.1,1.8-0.2
	c0.7-0.2,1.1-0.7,1.1-1.3C44.1,56.8,43.8,56.4,43.4,56.1z M38.4,55.2c0.6-0.3,1.5-0.5,2.5-0.5c1,0,1.9,0.2,2.5,0.5
	c0.9,0.4,1.4,1.2,1.4,2.1c0,0.9-0.4,1.6-1.2,2c-0.6,0.4-1.5,0.5-2.6,0.5c-0.8,0-1.6-0.1-2.2-0.3c-1.1-0.4-1.7-1.2-1.7-2.2
	C37.3,56.3,37.7,55.6,38.4,55.2z M43.4,62c-0.4-0.3-1.2-0.4-2.4-0.4c-0.8,0-1.5,0.1-2.1,0.3s-0.8,0.6-0.8,1.2c0,0.6,0.3,1,0.8,1.2
	c0.5,0.3,1.3,0.4,2.3,0.4c0.8,0,1.4-0.1,1.8-0.2c0.7-0.2,1.1-0.7,1.1-1.3C44.1,62.7,43.8,62.3,43.4,62z M38.4,61.1
	c0.6-0.3,1.5-0.5,2.5-0.5c1,0,1.9,0.2,2.5,0.5c0.9,0.4,1.4,1.2,1.4,2.1c0,0.9-0.4,1.6-1.2,2c-0.6,0.4-1.5,0.5-2.6,0.5
	c-0.8,0-1.6-0.1-2.2-0.3c-1.1-0.4-1.7-1.2-1.7-2.2C37.3,62.2,37.7,61.5,38.4,61.1z M44.2,71.1c-0.5,0.4-1.1,0.6-1.8,0.6v-1
	c0.5,0,0.8-0.1,1.1-0.3c0.4-0.2,0.6-0.7,0.6-1.3c0-0.5-0.1-0.9-0.4-1.2c-0.3-0.3-0.6-0.4-1-0.4c-0.5,0-0.9,0.2-1.1,0.5
	c-0.2,0.3-0.3,0.8-0.3,1.3c0,0.1,0,0.1,0,0.2c0,0.1,0,0.1,0,0.2h-0.8c0-0.1,0-0.2,0-0.2c0-0.1,0-0.1,0-0.2c0-0.4-0.1-0.6-0.2-0.9
	c-0.2-0.4-0.5-0.6-1-0.6c-0.4,0-0.7,0.1-0.9,0.4c-0.2,0.3-0.3,0.6-0.3,0.9c0,0.6,0.2,1.1,0.6,1.3c0.2,0.1,0.6,0.2,1,0.2v0.9
	c-0.6,0-1-0.1-1.4-0.3c-0.7-0.4-1-1.1-1-2c0-0.8,0.2-1.3,0.5-1.8c0.3-0.4,0.8-0.6,1.5-0.6c0.5,0,0.8,0.1,1.1,0.4
	c0.2,0.2,0.3,0.4,0.4,0.6c0.1-0.4,0.3-0.7,0.6-0.9c0.3-0.2,0.7-0.3,1.1-0.3c0.7,0,1.3,0.2,1.7,0.7c0.4,0.5,0.7,1.1,0.7,2
	C44.9,70.1,44.7,70.8,44.2,71.1z"/>
<path fill="#292724" d="M20.5,95.7c1.1-0.5,2.3-0.7,3.4-0.7c1.3,0,2.5,0.3,3.8,0.9c0.7,0.3,1.3,0.6,1.6,0.9l0.6,0.4v1.3
	c-1-0.6-1.8-0.9-2.4-1.1c-1.1-0.4-2.2-0.6-3.5-0.6c-0.8,0-1.6,0.1-2.3,0.2c-1.1,0.2-2.1,0.6-3,1.1L18,98.5v-1.3
	C18.9,96.5,19.7,96.1,20.5,95.7z M25.5,101.6c-0.4-0.3-0.9-0.4-1.5-0.4c-0.8,0-1.4,0.2-1.8,0.6c-0.2,0.3-0.3,0.6-0.3,0.9
	c0,0.5,0.2,0.9,0.6,1.1c0.4,0.2,0.9,0.4,1.5,0.4c0.6,0,1.1-0.1,1.5-0.4c0.4-0.2,0.6-0.6,0.6-1.1C26.1,102.3,25.9,101.9,25.5,101.6z
	 M20.7,102.1c0.2-0.3,0.4-0.6,0.8-0.8h-3.2v-1.8h9.2v1.7h-0.9c0.4,0.3,0.7,0.5,0.9,0.9c0.2,0.3,0.3,0.7,0.3,1.2c0,0.8-0.3,1.5-1,2
	c-0.6,0.5-1.5,0.8-2.5,0.8c-1.2,0-2.1-0.3-2.7-0.8c-0.7-0.5-1-1.3-1-2.1C20.4,102.7,20.5,102.4,20.7,102.1z M20.9,108
	c0.4-0.4,1-0.7,1.8-0.7h4.6v1.8h-4.1c-0.4,0-0.6,0-0.8,0.1c-0.4,0.2-0.5,0.5-0.5,1c0,0.6,0.3,1,0.8,1.2c0.3,0.1,0.6,0.2,1,0.2h3.7
	v1.8h-6.8v-1.7h1c-0.4-0.2-0.6-0.4-0.8-0.6c-0.3-0.4-0.4-0.8-0.4-1.4C20.4,109,20.6,108.4,20.9,108z M26.5,115.6
	c0.7,0.6,1.1,1.4,1.1,2.6s-0.4,2-1.1,2.6c-0.7,0.6-1.6,0.9-2.6,0.9c-1,0-1.8-0.3-2.6-0.9c-0.7-0.6-1.1-1.4-1.1-2.6s0.4-2,1.1-2.6
	c0.7-0.6,1.6-0.9,2.6-0.9C25,114.8,25.8,115.1,26.5,115.6z M25.5,117.1c-0.4-0.3-0.9-0.4-1.6-0.4s-1.2,0.1-1.6,0.4
	c-0.4,0.3-0.6,0.7-0.6,1.2c0,0.5,0.2,0.9,0.6,1.2c0.4,0.3,0.9,0.4,1.6,0.4s1.2-0.1,1.6-0.4c0.4-0.3,0.6-0.7,0.6-1.2
	S25.9,117.3,25.5,117.1z M23,124.4c-0.3,0-0.5,0.1-0.7,0.3c-0.3,0.2-0.4,0.5-0.4,0.9c0,0.6,0.3,1,0.9,1.2c0.3,0.1,0.7,0.2,1.3,0.2
	c0.5,0,0.9-0.1,1.2-0.2c0.6-0.2,0.8-0.6,0.8-1.2c0-0.4-0.1-0.7-0.3-0.9c-0.2-0.2-0.5-0.3-0.9-0.3v-1.8c0.5,0,1.1,0.2,1.5,0.6
	c0.8,0.6,1.2,1.4,1.2,2.5c0,1.1-0.3,1.9-1,2.4c-0.6,0.5-1.5,0.8-2.5,0.8c-1.2,0-2.1-0.3-2.7-0.9c-0.6-0.6-1-1.4-1-2.4
	c0-0.9,0.2-1.6,0.6-2.1c0.4-0.5,1.1-0.9,2-1V124.4z M20.7,131.3c0.2-0.5,0.5-0.8,1-1.1c0.4-0.3,0.9-0.4,1.4-0.5
	c0.3,0,0.8-0.1,1.3-0.1v4.7c0.7,0,1.2-0.2,1.4-0.6c0.2-0.2,0.3-0.5,0.3-0.9c0-0.4-0.1-0.7-0.3-0.9c-0.1-0.1-0.3-0.2-0.5-0.3v-1.8
	c0.4,0,0.8,0.3,1.2,0.6c0.7,0.6,1,1.4,1,2.4c0,0.9-0.3,1.6-0.8,2.3c-0.6,0.7-1.5,1-2.7,1c-1.2,0-2.1-0.3-2.7-0.9
	c-0.6-0.6-0.9-1.4-0.9-2.3C20.4,132.3,20.5,131.8,20.7,131.3z M22.2,133.8c0.3,0.2,0.6,0.4,1.1,0.4v-2.8c-0.5,0-0.8,0.2-1.1,0.4
	c-0.2,0.3-0.4,0.6-0.4,1C21.8,133.3,22,133.6,22.2,133.8z M24.5,142.5c0.4-0.1,0.7-0.2,0.9-0.3c0.4-0.3,0.6-0.8,0.6-1.6
	c0-0.5-0.1-0.8-0.1-1.1c-0.2-0.5-0.5-0.8-1.1-0.8c-0.3,0-0.5,0.1-0.7,0.4c-0.2,0.3-0.3,0.7-0.4,1.3l-0.2,1c-0.2,1-0.5,1.6-0.7,2
	c-0.4,0.6-1.1,0.9-2,0.9c-0.8,0-1.5-0.3-2.1-0.9c-0.5-0.6-0.8-1.5-0.8-2.6c0-1,0.3-1.8,0.8-2.5c0.5-0.7,1.3-1,2.2-1.1v1.9
	c-0.6,0-0.9,0.3-1.2,0.7c-0.2,0.3-0.2,0.7-0.2,1.1c0,0.5,0.1,0.9,0.3,1.2c0.2,0.3,0.5,0.4,0.8,0.4c0.3,0,0.6-0.1,0.7-0.4
	c0.1-0.2,0.2-0.6,0.4-1.2l0.4-1.6c0.2-0.7,0.4-1.2,0.7-1.6c0.4-0.5,1.1-0.8,1.9-0.8c0.8,0,1.5,0.3,2.1,1c0.6,0.6,0.8,1.6,0.8,2.7
	c0,1.2-0.3,2.1-0.8,2.8c-0.5,0.7-1.3,1-2.3,1V142.5z M17.9,145.6v-1.5l9.5,3.6v1.5L17.9,145.6z M25.2,153.4c0.3,0,0.5-0.1,0.7-0.2
	c0.2-0.2,0.4-0.6,0.4-1.2c0-0.4-0.1-0.6-0.2-0.8c-0.1-0.2-0.3-0.3-0.5-0.3c-0.2,0-0.4,0.1-0.5,0.2c-0.1,0.2-0.3,0.8-0.5,1.9
	c-0.2,0.8-0.4,1.3-0.7,1.6c-0.3,0.3-0.7,0.5-1.2,0.5c-0.6,0-1.2-0.2-1.6-0.7c-0.5-0.5-0.7-1.2-0.7-2.1c0-0.8,0.2-1.5,0.5-2.1
	c0.3-0.5,0.9-0.8,1.8-0.9v1.8c-0.2,0-0.4,0.1-0.5,0.2c-0.2,0.2-0.4,0.5-0.4,1c0,0.4,0.1,0.7,0.2,0.8c0.1,0.2,0.3,0.2,0.4,0.2
	c0.2,0,0.4-0.1,0.4-0.3c0.1-0.2,0.3-0.8,0.5-1.9c0.2-0.7,0.4-1.2,0.8-1.6c0.3-0.4,0.8-0.5,1.3-0.5c0.7,0,1.2,0.3,1.7,0.8
	c0.4,0.5,0.6,1.3,0.6,2.3c0,1.1-0.2,1.9-0.7,2.4c-0.5,0.5-1,0.8-1.7,0.8V153.4z M18.2,161.9v-1.8h5l-2.6-2.2v-2.2l2.6,2.4l4.2-2.5
	v2.2l-2.9,1.6l0.8,0.7h2.1v1.8H18.2z M23,164.9c-0.3,0-0.5,0.1-0.7,0.3c-0.3,0.2-0.4,0.5-0.4,0.9c0,0.6,0.3,1,0.9,1.2
	c0.3,0.1,0.7,0.2,1.3,0.2c0.5,0,0.9-0.1,1.2-0.2c0.6-0.2,0.8-0.6,0.8-1.2c0-0.4-0.1-0.7-0.3-0.9c-0.2-0.2-0.5-0.3-0.9-0.3v-1.8
	c0.5,0,1.1,0.2,1.5,0.6c0.8,0.6,1.2,1.4,1.2,2.5c0,1.1-0.3,1.9-1,2.4c-0.6,0.5-1.5,0.8-2.5,0.8c-1.2,0-2.1-0.3-2.7-0.9
	c-0.6-0.6-1-1.4-1-2.4c0-0.9,0.2-1.6,0.6-2.1c0.4-0.5,1.1-0.9,2-1V164.9z M26.5,171.1c0.7,0.6,1.1,1.4,1.1,2.6s-0.4,2-1.1,2.6
	c-0.7,0.6-1.6,0.9-2.6,0.9c-1,0-1.8-0.3-2.6-0.9c-0.7-0.6-1.1-1.4-1.1-2.6s0.4-2,1.1-2.6c0.7-0.6,1.6-0.9,2.6-0.9
	C25,170.3,25.8,170.6,26.5,171.1z M25.5,172.6c-0.4-0.3-0.9-0.4-1.6-0.4s-1.2,0.1-1.6,0.4c-0.4,0.3-0.6,0.7-0.6,1.2
	c0,0.5,0.2,0.9,0.6,1.2c0.4,0.3,0.9,0.4,1.6,0.4s1.2-0.1,1.6-0.4c0.4-0.3,0.6-0.7,0.6-1.2C26.1,173.2,25.9,172.8,25.5,172.6z
	 M27.4,178.5v1.8h-9.2v-1.8H27.4z M19.1,182.6c0.4-0.3,0.9-0.4,1.4-0.4c0.6,0,1,0.1,1.4,0.4c0.2,0.2,0.4,0.4,0.5,0.7
	c0.2-0.5,0.4-0.8,0.8-1.1c0.4-0.2,0.8-0.4,1.4-0.4c0.5,0,1,0.1,1.5,0.4c0.3,0.2,0.5,0.4,0.7,0.7c0.2,0.3,0.4,0.6,0.5,1
	c0.1,0.4,0.1,0.8,0.1,1.3v4.2h-9.2V185C18.2,183.8,18.5,183,19.1,182.6z M23.3,187.6h2.5v-2.3c0-0.4-0.1-0.7-0.2-0.9
	c-0.2-0.4-0.6-0.6-1.2-0.6c-0.5,0-0.8,0.2-1,0.6c-0.1,0.2-0.2,0.5-0.2,0.9V187.6z M19.7,187.6h2v-2.3c0-0.4-0.1-0.7-0.2-1
	c-0.2-0.3-0.4-0.4-0.8-0.4c-0.4,0-0.7,0.2-0.9,0.5c-0.1,0.3-0.1,0.7-0.1,1.1V187.6z M20.5,193.4c-0.8-0.3-1.6-0.8-2.5-1.4v-1.3
	l0.7,0.4c1,0.5,2,0.9,3,1.1c0.7,0.1,1.4,0.2,2.3,0.2c1.3,0,2.5-0.2,3.5-0.6c0.6-0.2,1.4-0.6,2.4-1.1v1.3l-0.6,0.4
	c-0.4,0.3-0.9,0.6-1.6,0.9c-1.3,0.6-2.6,0.9-3.8,0.9C22.7,194.1,21.6,193.9,20.5,193.4z M20.7,200.3c0.2-0.5,0.5-0.8,1-1.1
	c0.4-0.3,0.9-0.4,1.4-0.5c0.3,0,0.8-0.1,1.3-0.1v4.7c0.7,0,1.2-0.2,1.4-0.6c0.2-0.2,0.3-0.5,0.3-0.9c0-0.4-0.1-0.7-0.3-0.9
	c-0.1-0.1-0.3-0.2-0.5-0.3v-1.8c0.4,0,0.8,0.3,1.2,0.6c0.7,0.6,1,1.4,1,2.4c0,0.9-0.3,1.6-0.8,2.3c-0.6,0.7-1.5,1-2.7,1
	c-1.2,0-2.1-0.3-2.7-0.9c-0.6-0.6-0.9-1.4-0.9-2.3C20.4,201.3,20.5,200.8,20.7,200.3z M22.2,202.8c0.3,0.2,0.6,0.4,1.1,0.4v-2.8
	c-0.5,0-0.8,0.2-1.1,0.4c-0.2,0.3-0.4,0.6-0.4,1C21.8,202.3,22,202.6,22.2,202.8z M21.9,209.5h-1.3v-0.9h-1.9v-1.8h1.9v-1.1h1.3v1.1
	h3.6c0.3,0,0.5,0,0.5-0.1c0.1-0.1,0.1-0.3,0.1-0.7c0-0.1,0-0.1,0-0.2c0-0.1,0-0.1,0-0.2h1.3l0,0.8c0,0.8-0.1,1.4-0.4,1.7
	c-0.2,0.2-0.5,0.3-0.9,0.3h-4.2V209.5z M23.2,213.2c0-0.3-0.1-0.6-0.2-0.7c-0.1-0.3-0.3-0.4-0.5-0.4c-0.3,0-0.5,0.1-0.6,0.3
	c-0.1,0.2-0.2,0.5-0.2,0.9c0,0.4,0.1,0.7,0.3,0.9c0.2,0.1,0.4,0.2,0.6,0.2v1.7c-0.6,0-1.1-0.2-1.5-0.5c-0.6-0.5-0.9-1.3-0.9-2.4
	c0-0.7,0.1-1.4,0.4-2c0.3-0.6,0.9-0.9,1.7-0.9h3.1c0.2,0,0.5,0,0.8,0c0.2,0,0.4,0,0.5-0.1c0.1-0.1,0.2-0.1,0.2-0.3h0.3v1.9
	c-0.1,0.1-0.3,0.1-0.4,0.1c-0.1,0-0.3,0-0.4,0.1c0.3,0.2,0.5,0.5,0.7,0.8c0.2,0.4,0.3,0.8,0.3,1.3c0,0.6-0.2,1.1-0.5,1.5
	c-0.4,0.4-0.9,0.6-1.5,0.6c-0.8,0-1.4-0.3-1.8-1c-0.2-0.4-0.3-0.9-0.4-1.6L23.2,213.2z M24,212.2c0.1,0.1,0.1,0.2,0.2,0.3
	c0,0.1,0.1,0.3,0.1,0.5l0.1,0.4c0.1,0.4,0.1,0.6,0.2,0.8c0.2,0.3,0.4,0.4,0.8,0.4c0.3,0,0.5-0.1,0.7-0.3c0.1-0.2,0.2-0.4,0.2-0.6
	c0-0.4-0.1-0.7-0.3-1.1c-0.2-0.3-0.6-0.5-1.2-0.5H24z M18.4,219c0.1-0.3,0.4-0.6,0.6-0.9c0.2-0.2,0.5-0.4,0.8-0.5
	c0.3-0.1,0.6-0.2,1-0.2c0.4,0,0.9,0.1,1.3,0.3c0.4,0.2,0.7,0.6,0.9,1.1c0.2-0.4,0.4-0.7,0.7-0.9c0.3-0.2,0.8-0.3,1.4-0.3h0.6
	c0.4,0,0.7,0,0.9-0.1c0.2-0.1,0.4-0.2,0.5-0.4h0.2v2.1c-0.2,0.1-0.4,0.1-0.5,0.1c-0.3,0.1-0.5,0.1-0.8,0.1l-0.9,0
	c-0.6,0-1,0.1-1.2,0.3c-0.2,0.2-0.3,0.6-0.3,1.2v2h3.6v1.9h-9.2v-4.5C18.2,219.8,18.2,219.3,18.4,219z M19.7,223.1h2.5v-2.2
	c0-0.4-0.1-0.8-0.2-1c-0.2-0.4-0.5-0.6-1-0.6c-0.6,0-0.9,0.2-1.1,0.6c-0.1,0.2-0.2,0.5-0.2,0.9V223.1z"/>
</svg>
